<svg xmlns="http://www.w3.org/2000/svg" viewBox="0 0 721 207"><defs><style>.a,.j{fill:#fff;}.b{fill:#0071bc;}.c{fill:#1b1464;}.d,.f{fill:#4d4d4d;}.e{fill:#fd5;stroke-width:0.48px;}.e,.f,.j{stroke:#000;}.e,.f,.g{stroke-linecap:round;stroke-linejoin:round;}.f{stroke-width:0.38px;}.g{fill:#fea;stroke:#545454;stroke-width:0.19px;}.h{fill:#39b54a;}.i{fill:#006837;}.j,.k,.m{stroke-miterlimit:10;}.j{stroke-width:1.08px;}.k{fill:#fbb03b;stroke:#f15a24;}.k,.m{stroke-width:0.61px;}.l{fill:#c1272d;}.m{fill:#8cc63f;stroke:#006837;}</style></defs><polygon class="a" points="181.71 72 214.4 46.88 214.4 59.36 288.56 59.36 288.56 83.58 214.4 83.58 214.4 97.12 181.71 72"/><path d="M214,47.77v12h74.17V83.15H214V96.23L182.43,72,214,47.77m.87-1.77L181,72l33.83,26V84H289V58.92H214.83V46Z"/><path d="M222.39,65.53h1.74v5.31h6.54V65.53h1.75V78.38h-1.75v-6h-6.54v6h-1.74Z"/><path d="M244.41,65.53v1.53h-4.29V78.38h-1.74V67.06H234.1V65.53Z"/><path d="M255.25,65.53v1.53H251V78.38h-1.74V67.06h-4.29V65.53Z"/><path d="M257,65.53h5.69a3.85,3.85,0,0,1,2.73,1,3.53,3.53,0,0,1,1,2.72,3.93,3.93,0,0,1-.92,2.61A3.47,3.47,0,0,1,262.69,73h-4v5.43H257Zm6.68,1.77a3.7,3.7,0,0,0-1.56-.27h-3.4v4.45h3.4A3.21,3.21,0,0,0,264,71a2,2,0,0,0,.72-1.76A1.93,1.93,0,0,0,263.68,67.3Z"/><rect class="b" x="37.33" y="36.33" width="143.33" height="71.33" rx="6.36"/><path class="c" d="M174.31,36.67a6,6,0,0,1,6,6v58.62a6,6,0,0,1-6,6H43.69a6,6,0,0,1-6-6V42.69a6,6,0,0,1,6-6H174.31m0-.67H43.69A6.71,6.71,0,0,0,37,42.69v58.62A6.71,6.71,0,0,0,43.69,108H174.31a6.71,6.71,0,0,0,6.69-6.69V42.69A6.71,6.71,0,0,0,174.31,36Z"/><path class="a" d="M79.62,50v1.2H76.23v8.84H74.86V51.22H71.47V50Z"/><path class="a" d="M80.22,52.74h1.17V54a2.73,2.73,0,0,1,.71-.9,1.78,1.78,0,0,1,1.29-.53h.11l.29,0v1.3l-.21,0h-.2a1.76,1.76,0,0,0-1.43.59,2.11,2.11,0,0,0-.5,1.38v4.21H80.22Z"/><path class="a" d="M88.78,55.63a.66.66,0,0,0,.56-.35,1,1,0,0,0,.08-.48,1,1,0,0,0-.44-.91,2.4,2.4,0,0,0-1.28-.29,1.66,1.66,0,0,0-1.37.52A1.81,1.81,0,0,0,86,55H84.89a2.16,2.16,0,0,1,.88-1.89,3.62,3.62,0,0,1,2-.53,3.92,3.92,0,0,1,2.09.5,1.66,1.66,0,0,1,.8,1.53V58.8a.57.57,0,0,0,.08.31q.08.12.33.12h.19l.21,0v.91a3.41,3.41,0,0,1-.43.1l-.41,0a1,1,0,0,1-.93-.45,1.76,1.76,0,0,1-.21-.68,3.21,3.21,0,0,1-1.08.86,3.34,3.34,0,0,1-1.55.36,2.3,2.3,0,0,1-1.66-.62,2.06,2.06,0,0,1-.65-1.55,2,2,0,0,1,.64-1.57,2.92,2.92,0,0,1,1.66-.69ZM86.18,59a1.48,1.48,0,0,0,.93.3,2.84,2.84,0,0,0,1.26-.3,1.68,1.68,0,0,0,1-1.63v-1a1.84,1.84,0,0,1-.58.24,4.56,4.56,0,0,1-.7.14l-.74.09a3,3,0,0,0-1,.28,1.11,1.11,0,0,0-.58,1A1,1,0,0,0,86.18,59Z"/><path class="a" d="M92.64,52.74h1.17v1a3.09,3.09,0,0,1,1.1-.92,2.87,2.87,0,0,1,1.29-.28,2.12,2.12,0,0,1,2.1,1.08,3.76,3.76,0,0,1,.31,1.71v4.69H97.35V55.45a2.52,2.52,0,0,0-.19-1.08A1.21,1.21,0,0,0,96,53.68a2.43,2.43,0,0,0-.72.09,1.86,1.86,0,0,0-.89.6,2,2,0,0,0-.4.75,5.23,5.23,0,0,0-.09,1.11v3.83H92.64Z"/><path class="a" d="M101.16,57.77a1.72,1.72,0,0,0,.31.94,2,2,0,0,0,1.65.59,2.53,2.53,0,0,0,1.22-.29,1,1,0,0,0,.53-.92.78.78,0,0,0-.42-.72,5,5,0,0,0-1.07-.35l-1-.25a4.5,4.5,0,0,1-1.41-.52,1.55,1.55,0,0,1-.8-1.38,2.09,2.09,0,0,1,.76-1.68,3,3,0,0,1,2-.64,2.83,2.83,0,0,1,2.41,1,2.08,2.08,0,0,1,.45,1.33h-1.16a1.36,1.36,0,0,0-.3-.76,2,2,0,0,0-1.5-.48,1.87,1.87,0,0,0-1.08.26.83.83,0,0,0-.37.71.87.87,0,0,0,.48.76,3.25,3.25,0,0,0,.82.3l.83.2a6.3,6.3,0,0,1,1.81.62,1.64,1.64,0,0,1,.72,1.48,2.25,2.25,0,0,1-.75,1.69,3.19,3.19,0,0,1-2.29.71,3.07,3.07,0,0,1-2.34-.74,2.77,2.77,0,0,1-.74-1.83Z"/><path class="a" d="M111.35,55.63a.69.69,0,0,0,.57-.35,1.19,1.19,0,0,0,.08-.48,1,1,0,0,0-.45-.91,2.38,2.38,0,0,0-1.28-.29,1.62,1.62,0,0,0-1.36.52,1.81,1.81,0,0,0-.3.86h-1.15a2.16,2.16,0,0,1,.88-1.89,3.64,3.64,0,0,1,2-.53,3.92,3.92,0,0,1,2.09.5,1.64,1.64,0,0,1,.8,1.53V58.8a.57.57,0,0,0,.08.31.38.38,0,0,0,.33.12h.19l.22,0v.91a3.47,3.47,0,0,1-.44.1l-.41,0a1,1,0,0,1-.92-.45,1.94,1.94,0,0,1-.22-.68,3.21,3.21,0,0,1-1.08.86,3.31,3.31,0,0,1-1.55.36,2.3,2.3,0,0,1-1.66-.62,2.06,2.06,0,0,1-.65-1.55,2,2,0,0,1,.64-1.57,2.92,2.92,0,0,1,1.67-.69ZM108.76,59a1.45,1.45,0,0,0,.92.3,2.84,2.84,0,0,0,1.26-.3,1.68,1.68,0,0,0,1-1.63v-1a1.84,1.84,0,0,1-.58.24,4.45,4.45,0,0,1-.69.14l-.75.09a3,3,0,0,0-1,.28,1.1,1.1,0,0,0-.57,1A1,1,0,0,0,108.76,59Z"/><path class="a" d="M120.05,53.13A2.92,2.92,0,0,1,121,55.2h-1.2a2.18,2.18,0,0,0-.5-1.12,1.56,1.56,0,0,0-1.25-.45,1.73,1.73,0,0,0-1.68,1.15,4.47,4.47,0,0,0-.33,1.83,3.43,3.43,0,0,0,.47,1.85,1.81,1.81,0,0,0,2.67.29,2.53,2.53,0,0,0,.62-1.28H121a3.22,3.22,0,0,1-1,2.13,3.16,3.16,0,0,1-2.09.67,2.8,2.8,0,0,1-2.29-1.05,4,4,0,0,1-.86-2.62,4.4,4.4,0,0,1,.94-3A3,3,0,0,1,118,52.53,3.21,3.21,0,0,1,120.05,53.13Z"/><path class="a" d="M122.46,50.7h1.24v2h1.17v1H123.7v4.77A.53.53,0,0,0,124,59a1.15,1.15,0,0,0,.48.07h.19l.24,0v1a3.12,3.12,0,0,1-.44.09,3.84,3.84,0,0,1-.5,0,1.36,1.36,0,0,1-1.17-.44,2,2,0,0,1-.3-1.15V53.75h-1v-1h1Z"/><path class="a" d="M126.1,50h1.25v1.39H126.1Zm0,2.75h1.25v7.29H126.1Z"/><path class="a" d="M134.51,53.47a3.68,3.68,0,0,1,1,2.77,4.8,4.8,0,0,1-.86,2.93A3.07,3.07,0,0,1,132,60.32a3,3,0,0,1-2.39-1,4,4,0,0,1-.88-2.74,4.39,4.39,0,0,1,.93-2.94,3.1,3.1,0,0,1,2.5-1.09A3.24,3.24,0,0,1,134.51,53.47Zm-.76,4.87a4.68,4.68,0,0,0,.45-2.06,3.82,3.82,0,0,0-.32-1.67,1.85,1.85,0,0,0-1.78-1,1.75,1.75,0,0,0-1.62.86,4,4,0,0,0-.5,2.08,3.46,3.46,0,0,0,.5,1.94,1.79,1.79,0,0,0,1.61.78A1.68,1.68,0,0,0,133.75,58.34Z"/><path class="a" d="M137,52.74h1.17v1a3.09,3.09,0,0,1,1.1-.92,2.84,2.84,0,0,1,1.29-.28,2.12,2.12,0,0,1,2.1,1.08,3.91,3.91,0,0,1,.3,1.71v4.69h-1.25V55.45a2.37,2.37,0,0,0-.2-1.08,1.18,1.18,0,0,0-1.18-.69,2.34,2.34,0,0,0-.72.09,1.82,1.82,0,0,0-.89.6,1.84,1.84,0,0,0-.4.75,5.23,5.23,0,0,0-.09,1.11v3.83H137Z"/><path class="a" d="M69.31,66.82h2l2.89,8.49L77,66.82H79v10h-1.3V70.94c0-.21,0-.55,0-1s0-1,0-1.53l-2.87,8.47H73.47l-2.9-8.47v.31c0,.25,0,.62,0,1.12s0,.88,0,1.12v5.92h-1.3Z"/><path class="a" d="M80.85,66.82H82.1v1.39H80.85Zm0,2.75H82.1v7.29H80.85Z"/><path class="a" d="M88.79,69.93A2.89,2.89,0,0,1,89.73,72h-1.2a2.18,2.18,0,0,0-.5-1.12,1.58,1.58,0,0,0-1.25-.45,1.73,1.73,0,0,0-1.68,1.15,4.47,4.47,0,0,0-.33,1.83,3.43,3.43,0,0,0,.46,1.85,1.82,1.82,0,0,0,2.68.29,2.53,2.53,0,0,0,.62-1.28h1.2a2.89,2.89,0,0,1-3.13,2.8,2.8,2.8,0,0,1-2.29-1,4,4,0,0,1-.85-2.62,4.45,4.45,0,0,1,.93-3,3.05,3.05,0,0,1,2.39-1.07A3.18,3.18,0,0,1,88.79,69.93Z"/><path class="a" d="M91,69.54h1.17v1.27a2.67,2.67,0,0,1,.7-.9,1.82,1.82,0,0,1,1.3-.53h.11l.28,0v1.3l-.2,0h-.2a1.75,1.75,0,0,0-1.43.59,2.11,2.11,0,0,0-.5,1.38v4.21H91Z"/><path class="a" d="M100.92,70.27a3.68,3.68,0,0,1,1,2.77A4.8,4.8,0,0,1,101,76a3.09,3.09,0,0,1-2.66,1.15,3,3,0,0,1-2.38-1,4,4,0,0,1-.88-2.74,4.39,4.39,0,0,1,.93-2.94,3.1,3.1,0,0,1,2.5-1.09A3.26,3.26,0,0,1,100.92,70.27Zm-.76,4.87a4.68,4.68,0,0,0,.45-2.06,3.68,3.68,0,0,0-.33-1.67,1.82,1.82,0,0,0-1.77-1,1.75,1.75,0,0,0-1.62.86,4,4,0,0,0-.51,2.08,3.46,3.46,0,0,0,.51,1.94,1.78,1.78,0,0,0,1.61.78A1.68,1.68,0,0,0,100.16,75.14Z"/><path class="a" d="M104.14,74.56a1.72,1.72,0,0,0,.31,1,2,2,0,0,0,1.65.59,2.53,2.53,0,0,0,1.22-.29,1,1,0,0,0,.53-.92.78.78,0,0,0-.42-.72,5,5,0,0,0-1.07-.35l-1-.25a4.61,4.61,0,0,1-1.41-.52,1.55,1.55,0,0,1-.8-1.38,2.09,2.09,0,0,1,.76-1.68,3,3,0,0,1,2-.64,2.83,2.83,0,0,1,2.41,1,2.15,2.15,0,0,1,.46,1.33h-1.17a1.36,1.36,0,0,0-.3-.76,2,2,0,0,0-1.5-.48,1.87,1.87,0,0,0-1.08.26.83.83,0,0,0-.37.71.87.87,0,0,0,.48.76,3.25,3.25,0,0,0,.82.3l.83.2a6.3,6.3,0,0,1,1.81.62,1.64,1.64,0,0,1,.72,1.48,2.25,2.25,0,0,1-.75,1.69,3.19,3.19,0,0,1-2.29.71,3.07,3.07,0,0,1-2.34-.74,2.82,2.82,0,0,1-.74-1.84Z"/><path class="a" d="M114.93,69.74a2.79,2.79,0,0,1,1.1,1,3.18,3.18,0,0,1,.49,1.29,7.92,7.92,0,0,1,.11,1.61h-5.32a3.12,3.12,0,0,0,.52,1.8,1.73,1.73,0,0,0,1.51.67,1.94,1.94,0,0,0,1.53-.64,2.15,2.15,0,0,0,.45-.86h1.21a2.51,2.51,0,0,1-.32.9,3.28,3.28,0,0,1-.6.81,2.81,2.81,0,0,1-1.38.74,4.25,4.25,0,0,1-1,.11,3.07,3.07,0,0,1-2.3-1,3.89,3.89,0,0,1-.94-2.79,4.19,4.19,0,0,1,1-2.86,3.1,3.1,0,0,1,2.48-1.1A3.39,3.39,0,0,1,114.93,69.74Zm.44,2.88a3.2,3.2,0,0,0-.35-1.28,1.76,1.76,0,0,0-1.67-.89,1.84,1.84,0,0,0-1.41.61,2.38,2.38,0,0,0-.61,1.56Z"/><path class="a" d="M118.22,69.54h1.17v1.27a2.73,2.73,0,0,1,.71-.9,1.78,1.78,0,0,1,1.29-.53h.12l.28,0v1.3l-.21,0h-.2a1.76,1.76,0,0,0-1.43.59,2.1,2.1,0,0,0-.49,1.38v4.21h-1.24Z"/><path class="a" d="M123.46,69.54l2,6,2-6h1.35L126,76.86h-1.31L122,69.54Z"/><path class="a" d="M129.85,66.82h1.25v1.39h-1.25Zm0,2.75h1.25v7.29h-1.25Z"/><path class="a" d="M137.8,69.93a2.85,2.85,0,0,1,.93,2.07h-1.19a2.26,2.26,0,0,0-.5-1.12,1.58,1.58,0,0,0-1.25-.45,1.73,1.73,0,0,0-1.69,1.15,4.65,4.65,0,0,0-.32,1.83,3.43,3.43,0,0,0,.46,1.85,1.6,1.6,0,0,0,1.46.75,1.62,1.62,0,0,0,1.22-.46,2.61,2.61,0,0,0,.62-1.28h1.19a2.88,2.88,0,0,1-3.12,2.8,2.8,2.8,0,0,1-2.29-1,4,4,0,0,1-.86-2.62,4.45,4.45,0,0,1,.94-3,3,3,0,0,1,2.39-1.07A3.2,3.2,0,0,1,137.8,69.93Z"/><path class="a" d="M144.48,69.74a2.75,2.75,0,0,1,1.11,1,3.18,3.18,0,0,1,.49,1.29,8.73,8.73,0,0,1,.11,1.61h-5.32a3.12,3.12,0,0,0,.52,1.8,1.73,1.73,0,0,0,1.51.67,1.94,1.94,0,0,0,1.53-.64,2.15,2.15,0,0,0,.45-.86h1.21a2.51,2.51,0,0,1-.32.9,3.28,3.28,0,0,1-.6.81,2.81,2.81,0,0,1-1.38.74,4.31,4.31,0,0,1-1,.11,3.07,3.07,0,0,1-2.3-1,3.89,3.89,0,0,1-.94-2.79,4.19,4.19,0,0,1,.95-2.86,3.1,3.1,0,0,1,2.48-1.1A3.31,3.31,0,0,1,144.48,69.74Zm.45,2.88a3.2,3.2,0,0,0-.35-1.28,1.76,1.76,0,0,0-1.67-.89,1.84,1.84,0,0,0-1.41.61,2.38,2.38,0,0,0-.61,1.56Z"/><path class="a" d="M57.24,83.46a23.63,23.63,0,0,0-1.39,3.07A11,11,0,0,0,55.36,90a11.28,11.28,0,0,0,.56,3.63,21.08,21.08,0,0,0,1.34,2.91h-.83c-.66-1-1.07-1.7-1.23-2a8.58,8.58,0,0,1-.52-1.17,9.24,9.24,0,0,1-.54-2.16,9,9,0,0,1-.07-1.13,9.52,9.52,0,0,1,.64-3.61,18.94,18.94,0,0,1,1.68-3Z"/><path class="a" d="M63.19,86.54a2.79,2.79,0,0,1,1.1.95,3.18,3.18,0,0,1,.49,1.29,8.73,8.73,0,0,1,.11,1.61H59.57a3.12,3.12,0,0,0,.52,1.8,1.73,1.73,0,0,0,1.51.67,1.94,1.94,0,0,0,1.53-.64,2.18,2.18,0,0,0,.45-.85h1.21a2.54,2.54,0,0,1-.32.89,3.28,3.28,0,0,1-.6.81,2.73,2.73,0,0,1-1.38.74,3.83,3.83,0,0,1-1,.11,3.07,3.07,0,0,1-2.3-1,3.89,3.89,0,0,1-.94-2.79,4.19,4.19,0,0,1,1-2.86,3.1,3.1,0,0,1,2.48-1.1A3.39,3.39,0,0,1,63.19,86.54Zm.44,2.88a3.2,3.2,0,0,0-.35-1.28,1.76,1.76,0,0,0-1.67-.89,1.84,1.84,0,0,0-1.41.61,2.38,2.38,0,0,0-.61,1.56Z"/><path class="a" d="M66.74,92.17h1.43v1.49H66.74Z"/><path class="a" d="M74.41,86.63a3.57,3.57,0,0,1,.71.7v-.92h1.13v6.66a4.82,4.82,0,0,1-.41,2.2A2.94,2.94,0,0,1,73,96.76a3.54,3.54,0,0,1-2-.53,2.05,2.05,0,0,1-.9-1.66h1.25a1.46,1.46,0,0,0,.35.76,1.84,1.84,0,0,0,1.31.41,1.78,1.78,0,0,0,1.84-1,5.76,5.76,0,0,0,.24-2.1,2.37,2.37,0,0,1-.89.84,3.18,3.18,0,0,1-3.44-.57,3.76,3.76,0,0,1-.89-2.8,4.24,4.24,0,0,1,.9-2.87,2.8,2.8,0,0,1,2.16-1A2.69,2.69,0,0,1,74.41,86.63ZM74.56,88a1.8,1.8,0,0,0-1.42-.65,1.76,1.76,0,0,0-1.77,1.21,4.83,4.83,0,0,0-.25,1.71,3,3,0,0,0,.5,1.88,1.61,1.61,0,0,0,1.34.65,1.89,1.89,0,0,0,1.86-1.2,3.87,3.87,0,0,0,.3-1.58A3.08,3.08,0,0,0,74.56,88Z"/><path class="a" d="M78.42,92.17h1.43v1.49H78.42Z"/><path class="a" d="M85.8,86.38H87v1a3.12,3.12,0,0,1,.81-.78,2.66,2.66,0,0,1,1.47-.41,2.76,2.76,0,0,1,2.12,1,3.88,3.88,0,0,1,.87,2.72A4.16,4.16,0,0,1,91,93.26a2.86,2.86,0,0,1-1.85.65,2.52,2.52,0,0,1-1.39-.36,3.39,3.39,0,0,1-.74-.71v3.74H85.8Zm4.63,5.73A3.43,3.43,0,0,0,91,90a4,4,0,0,0-.25-1.51,1.86,1.86,0,0,0-3.51.07A5.06,5.06,0,0,0,87,90.26a3.67,3.67,0,0,0,.26,1.44A1.74,1.74,0,0,0,89,92.83,1.76,1.76,0,0,0,90.43,92.11Z"/><path class="a" d="M93.72,86.34h1.17v1.27a2.73,2.73,0,0,1,.71-.9,1.78,1.78,0,0,1,1.29-.53H97l.28,0v1.3l-.21,0h-.2a1.76,1.76,0,0,0-1.43.59A2.1,2.1,0,0,0,95,89.45v4.21H93.72Z"/><path class="a" d="M98.35,83.62H99.6V85H98.35Zm0,2.76H99.6v7.28H98.35Z"/><path class="a" d="M106.3,86.73a2.85,2.85,0,0,1,.93,2.07H106a2.26,2.26,0,0,0-.5-1.12,1.58,1.58,0,0,0-1.25-.45,1.73,1.73,0,0,0-1.69,1.15,4.65,4.65,0,0,0-.32,1.83,3.43,3.43,0,0,0,.46,1.85,1.6,1.6,0,0,0,1.46.75,1.62,1.62,0,0,0,1.22-.46,2.61,2.61,0,0,0,.62-1.28h1.19a2.88,2.88,0,0,1-3.12,2.8,2.8,2.8,0,0,1-2.29-1.05A4,4,0,0,1,101,90.2a4.45,4.45,0,0,1,.94-3,3,3,0,0,1,2.39-1.07A3.2,3.2,0,0,1,106.3,86.73Z"/><path class="a" d="M113,86.54a2.75,2.75,0,0,1,1.11.95,3.18,3.18,0,0,1,.49,1.29,8.73,8.73,0,0,1,.11,1.61h-5.32a3.12,3.12,0,0,0,.52,1.8,1.73,1.73,0,0,0,1.51.67,1.94,1.94,0,0,0,1.53-.64,2.18,2.18,0,0,0,.45-.85h1.21a2.54,2.54,0,0,1-.32.89,3.28,3.28,0,0,1-.6.81,2.73,2.73,0,0,1-1.38.74,3.83,3.83,0,0,1-1,.11,3.07,3.07,0,0,1-2.3-1,3.89,3.89,0,0,1-.94-2.79,4.19,4.19,0,0,1,1-2.86,3.1,3.1,0,0,1,2.48-1.1A3.31,3.31,0,0,1,113,86.54Zm.45,2.88a3.2,3.2,0,0,0-.35-1.28,1.76,1.76,0,0,0-1.67-.89,1.84,1.84,0,0,0-1.41.61,2.38,2.38,0,0,0-.61,1.56Z"/><path class="a" d="M125.44,87.07a3.68,3.68,0,0,1,1,2.77,4.8,4.8,0,0,1-.85,2.93,3.09,3.09,0,0,1-2.66,1.15,3,3,0,0,1-2.38-1,4,4,0,0,1-.88-2.74,4.39,4.39,0,0,1,.93-2.94,3.1,3.1,0,0,1,2.5-1.09A3.26,3.26,0,0,1,125.44,87.07Zm-.76,4.87a4.68,4.68,0,0,0,.45-2.06,3.68,3.68,0,0,0-.33-1.67,1.82,1.82,0,0,0-1.77-1,1.75,1.75,0,0,0-1.62.86,4,4,0,0,0-.51,2.08,3.46,3.46,0,0,0,.51,1.94,1.79,1.79,0,0,0,1.61.78A1.68,1.68,0,0,0,124.68,91.94Z"/><path class="a" d="M128,86.34h1.17v1.27a2.67,2.67,0,0,1,.7-.9,1.82,1.82,0,0,1,1.29-.53h.12l.28,0v1.3l-.2,0h-.2a1.75,1.75,0,0,0-1.43.59,2.11,2.11,0,0,0-.5,1.38v4.21H128Z"/><path class="a" d="M136.51,89.23a.69.69,0,0,0,.57-.35,1.19,1.19,0,0,0,.08-.48,1,1,0,0,0-.45-.91,2.35,2.35,0,0,0-1.28-.29,1.64,1.64,0,0,0-1.36.52,1.71,1.71,0,0,0-.29.86h-1.15a2.12,2.12,0,0,1,.88-1.89,3.6,3.6,0,0,1,2-.53,4,4,0,0,1,2.1.5,1.66,1.66,0,0,1,.8,1.53V92.4a.49.49,0,0,0,.08.31q.08.12.33.12H139l.22,0v.91a3.47,3.47,0,0,1-.44.1l-.41,0a1,1,0,0,1-.92-.45,1.76,1.76,0,0,1-.21-.68,3.21,3.21,0,0,1-1.08.86,3.37,3.37,0,0,1-1.55.36,2.33,2.33,0,0,1-1.67-.62,2.05,2.05,0,0,1-.64-1.55,2,2,0,0,1,.63-1.57,2.92,2.92,0,0,1,1.67-.69Zm-2.59,3.33a1.47,1.47,0,0,0,.92.3,2.81,2.81,0,0,0,1.26-.3,1.69,1.69,0,0,0,1-1.63v-1a2,2,0,0,1-.58.24,4.56,4.56,0,0,1-.7.14l-.74.09a3.1,3.1,0,0,0-1,.28,1.1,1.1,0,0,0-.57,1A1,1,0,0,0,133.92,92.56Z"/><path class="a" d="M145.21,86.73a2.85,2.85,0,0,1,.93,2.07H145a2.26,2.26,0,0,0-.5-1.12,1.58,1.58,0,0,0-1.25-.45,1.73,1.73,0,0,0-1.69,1.15,4.65,4.65,0,0,0-.32,1.83,3.43,3.43,0,0,0,.46,1.85,1.6,1.6,0,0,0,1.46.75,1.62,1.62,0,0,0,1.22-.46,2.61,2.61,0,0,0,.62-1.28h1.19a2.88,2.88,0,0,1-3.12,2.8,2.8,2.8,0,0,1-2.29-1.05,4,4,0,0,1-.86-2.62,4.45,4.45,0,0,1,.94-3,3.05,3.05,0,0,1,2.39-1.07A3.2,3.2,0,0,1,145.21,86.73Z"/><path class="a" d="M147.41,83.62h1.23v10h-1.23Z"/><path class="a" d="M155,86.54a2.79,2.79,0,0,1,1.1.95,3.18,3.18,0,0,1,.49,1.29,8.73,8.73,0,0,1,.11,1.61h-5.32a3.12,3.12,0,0,0,.52,1.8,1.73,1.73,0,0,0,1.51.67,1.94,1.94,0,0,0,1.53-.64,2.18,2.18,0,0,0,.45-.85h1.21a2.54,2.54,0,0,1-.32.89,3.28,3.28,0,0,1-.6.81,2.73,2.73,0,0,1-1.38.74,3.83,3.83,0,0,1-1,.11,3.07,3.07,0,0,1-2.3-1,3.89,3.89,0,0,1-.94-2.79,4.19,4.19,0,0,1,1-2.86,3.1,3.1,0,0,1,2.48-1.1A3.39,3.39,0,0,1,155,86.54Zm.44,2.88a3.2,3.2,0,0,0-.35-1.28,1.76,1.76,0,0,0-1.67-.89,1.84,1.84,0,0,0-1.41.61,2.38,2.38,0,0,0-.61,1.56Z"/><path class="a" d="M157.85,96.52a23,23,0,0,0,1.4-3.09,12.37,12.37,0,0,0-.07-7.06,21.54,21.54,0,0,0-1.35-2.91h.83c.7,1.12,1.13,1.81,1.27,2.07a8.36,8.36,0,0,1,.49,1.08,9.27,9.27,0,0,1,.46,1.69,9.07,9.07,0,0,1,.14,1.61,9.52,9.52,0,0,1-.64,3.61,20.38,20.38,0,0,1-1.67,3Z"/><rect class="d" x="287.84" y="36.34" width="145.83" height="71.33" rx="6.41"/><path d="M427.25,36.68a6.07,6.07,0,0,1,6.07,6.07v58.5a6.07,6.07,0,0,1-6.07,6.07h-133a6.07,6.07,0,0,1-6.07-6.07V42.75a6.07,6.07,0,0,1,6.07-6.07h133m0-.68h-133a6.77,6.77,0,0,0-6.75,6.75v58.5a6.77,6.77,0,0,0,6.75,6.75h133a6.77,6.77,0,0,0,6.75-6.75V42.75A6.77,6.77,0,0,0,427.25,36Z"/><path class="a" d="M338.46,48.45h2.13v7.91l8.08-7.91h3.06L344.83,55l7,9.64H349l-5.79-8.12L340.59,59v5.63h-2.13Z"/><path class="a" d="M353.42,48.45h3.14l4.64,13.66,4.62-13.66h3.11V64.61h-2.09V55.07c0-.33,0-.87,0-1.64s0-1.58,0-2.45l-4.61,13.63H360.1L355.45,51v.5q0,.59,0,1.8c0,.81,0,1.41,0,1.79v9.54h-2.09Z"/><path class="a" d="M373.67,59.39a4.67,4.67,0,0,0,.62,2.24,4.09,4.09,0,0,0,3.7,1.6,6.44,6.44,0,0,0,2.16-.35A2.48,2.48,0,0,0,382,60.44a2.14,2.14,0,0,0-.8-1.88,7.84,7.84,0,0,0-2.54-1l-2.12-.49A9.65,9.65,0,0,1,373.64,56a3.42,3.42,0,0,1-1.49-3,4.71,4.71,0,0,1,1.47-3.58,5.77,5.77,0,0,1,4.15-1.4,7,7,0,0,1,4.2,1.23,4.48,4.48,0,0,1,1.73,3.92h-2.06a4.16,4.16,0,0,0-.67-2,3.85,3.85,0,0,0-3.26-1.26,3.68,3.68,0,0,0-2.67.81,2.59,2.59,0,0,0-.81,1.89,1.87,1.87,0,0,0,1,1.74,14,14,0,0,0,2.84.88l2.2.52a6.52,6.52,0,0,1,2.45,1,3.88,3.88,0,0,1,1.49,3.29,4.12,4.12,0,0,1-1.9,3.83,8.39,8.39,0,0,1-4.43,1.16,6.49,6.49,0,0,1-4.6-1.54,5.26,5.26,0,0,1-1.63-4.15Z"/><path class="e" d="M352.55,75.52a7,7,0,0,0-2.16-5,8,8,0,0,0-9.16-1.26,7.09,7.09,0,0,0-3.83,7.16A7.26,7.26,0,0,0,342,82.07l-1,1.82c-.33.53.09.82.57.82l1.95,0-.05,2.06-1.32,1.4L343.91,90l-1.6,1.66v1.24L344,94.58l-1,1.23.07,1.58,1.31,1.36,1.35,1.47c.83-.25,1.35-1,1.92-2.26l-.11-13.38L349,84.5a.66.66,0,0,0,.48-1l-1.23-1.51A7.45,7.45,0,0,0,352.08,78a6.25,6.25,0,0,0,.47-2.48Z"/><path class="f" d="M345.17,73.91a1.62,1.62,0,0,1-.8-3,1.67,1.67,0,0,1,2,.28,1.63,1.63,0,0,1-1.08,2.76Z"/><path class="g" d="M345.14,81.38l.24,18.33-.65-.73-.23-15.57Z"/><path class="e" d="M368.84,75.52a7,7,0,0,0-2.16-5,8,8,0,0,0-9.16-1.26,7.1,7.1,0,0,0-3.83,7.16,7.3,7.3,0,0,0,4.55,5.64l-1,1.82c-.33.53.09.82.57.82l2,0-.05,2.06-1.32,1.4L360.2,90l-1.6,1.66v1.24l1.72,1.71-1.05,1.23.07,1.58,1.31,1.36,1.35,1.47c.83-.25,1.35-1,1.92-2.26l-.1-13.38,1.48-.08a.66.66,0,0,0,.47-1l-1.23-1.51A7.45,7.45,0,0,0,368.37,78a6.25,6.25,0,0,0,.47-2.48Z"/><path class="f" d="M361.47,73.91a1.62,1.62,0,0,1-.81-3,1.67,1.67,0,0,1,2,.28,1.63,1.63,0,0,1-1.08,2.76Z"/><path class="g" d="M361.43,81.38l.24,18.33L361,99l-.22-15.57Z"/><path class="e" d="M385.11,75.52a7,7,0,0,0-2.16-5,8,8,0,0,0-9.17-1.26A7.08,7.08,0,0,0,370,76.43a7.26,7.26,0,0,0,4.55,5.64l-1,1.82c-.33.53.08.82.57.82l1.94,0-.05,2.06-1.31,1.4L376.46,90l-1.59,1.66v1.24l1.71,1.71-1,1.23.06,1.58,1.32,1.36,1.35,1.47c.83-.25,1.34-1,1.92-2.26l-.11-13.38,1.48-.08a.66.66,0,0,0,.48-1l-1.23-1.51A7.39,7.39,0,0,0,384.63,78a6.44,6.44,0,0,0,.48-2.48Z"/><path class="f" d="M377.73,73.91a1.62,1.62,0,0,1-.8-3,1.67,1.67,0,0,1,2,.28,1.63,1.63,0,0,1-1.08,2.76Z"/><path class="g" d="M377.7,81.38l.24,18.33-.65-.73-.23-15.57Z"/><polygon class="a" points="507.52 84.64 433.35 84.64 433.35 60.42 507.52 60.42 507.52 46.88 540.21 72 507.52 97.12 507.52 84.64"/><path d="M508,47.77,539.49,72,508,96.23v-12H433.79V60.85H508V47.77M507.09,46V60H432.92v25.1h74.17V98l33.83-26L507.09,46Z"/><path d="M460.66,66.53h5.79a5.67,5.67,0,0,1,2.35.43,3,3,0,0,1,1.76,3,3.16,3.16,0,0,1-1.79,3.07,2.55,2.55,0,0,1,1.12.8,2.92,2.92,0,0,1,.42,1.62l.06,1.72a6,6,0,0,0,.12,1.1,1.05,1.05,0,0,0,.56.78v.29h-2.11a1.36,1.36,0,0,1-.14-.43,6.57,6.57,0,0,1-.09-1l-.1-2.14a1.81,1.81,0,0,0-.9-1.69,3.58,3.58,0,0,0-1.51-.24h-3.81v5.51h-1.73Zm5.6,5.89a3.14,3.14,0,0,0,1.87-.49,2,2,0,0,0,.68-1.77,1.91,1.91,0,0,0-1-1.87,3.09,3.09,0,0,0-1.37-.26h-4.09v4.39Z"/><path d="M473.43,66.53h5.7a3.81,3.81,0,0,1,2.72,1,3.53,3.53,0,0,1,1,2.72,4,4,0,0,1-.93,2.62A3.48,3.48,0,0,1,479.13,74h-4v5.43h-1.72Zm6.69,1.77a3.7,3.7,0,0,0-1.56-.27h-3.41v4.45h3.41a3.23,3.23,0,0,0,1.87-.5,2,2,0,0,0,.72-1.76A2,2,0,0,0,480.12,68.3Z"/><path d="M494.1,67.47a4.58,4.58,0,0,1,1.46,2.92h-1.68a3.58,3.58,0,0,0-1.12-2,3.49,3.49,0,0,0-2.35-.72,3.72,3.72,0,0,0-3,1.33,6.2,6.2,0,0,0-1.14,4.09,6,6,0,0,0,1,3.67,3.52,3.52,0,0,0,3.06,1.4,3.2,3.2,0,0,0,2.85-1.47,5.9,5.9,0,0,0,.77-2h1.68a5.87,5.87,0,0,1-1.47,3.4,5.2,5.2,0,0,1-4,1.65,5.27,5.27,0,0,1-3.68-1.35q-2-1.8-2-5.54A7.21,7.21,0,0,1,486,68.16a5.32,5.32,0,0,1,4.39-2A5.09,5.09,0,0,1,494.1,67.47Z"/><rect class="h" x="541.33" y="36.33" width="143.33" height="71.33" rx="6.36"/><path class="i" d="M678.31,36.67a6,6,0,0,1,6,6v58.62a6,6,0,0,1-6,6H547.69a6,6,0,0,1-6-6V42.69a6,6,0,0,1,6-6H678.31m0-.67H547.69A6.71,6.71,0,0,0,541,42.69v58.62a6.71,6.71,0,0,0,6.69,6.69H678.31a6.71,6.71,0,0,0,6.69-6.69V42.69A6.71,6.71,0,0,0,678.31,36Z"/><path class="a" d="M584.3,57v1.2h-3.38v8.84h-1.37V58.22h-3.39V57Z"/><path class="a" d="M588.36,59.94a2.82,2.82,0,0,1,1.11,1,3.34,3.34,0,0,1,.49,1.29,8.73,8.73,0,0,1,.11,1.61h-5.33a3.2,3.2,0,0,0,.52,1.8,1.75,1.75,0,0,0,1.52.67,1.93,1.93,0,0,0,1.52-.64,2.05,2.05,0,0,0,.45-.85H590a2.5,2.5,0,0,1-.31.89,3.07,3.07,0,0,1-.61.81,2.82,2.82,0,0,1-1.37.74,3.88,3.88,0,0,1-1,.11,3,3,0,0,1-2.3-1,3.9,3.9,0,0,1-1-2.79,4.24,4.24,0,0,1,1-2.86,3.13,3.13,0,0,1,2.49-1.1A3.31,3.31,0,0,1,588.36,59.94Zm.44,2.88a3.21,3.21,0,0,0-.34-1.28,1.79,1.79,0,0,0-1.68-.89,1.84,1.84,0,0,0-1.41.61,2.32,2.32,0,0,0-.6,1.56Z"/><path class="a" d="M591.63,59.74h1.16v1a3.27,3.27,0,0,1,1.1-.92,2.92,2.92,0,0,1,1.3-.28,2.12,2.12,0,0,1,2.1,1.08,3.91,3.91,0,0,1,.3,1.71v4.69h-1.25V62.45a2.37,2.37,0,0,0-.2-1.08,1.2,1.2,0,0,0-1.19-.69,2.32,2.32,0,0,0-.71.09,1.82,1.82,0,0,0-.89.6,1.84,1.84,0,0,0-.4.75,5.23,5.23,0,0,0-.09,1.11v3.83h-1.23Z"/><path class="a" d="M603.43,60a3.16,3.16,0,0,1,.75.71V57h1.18V67.06h-1.11V66a2.69,2.69,0,0,1-1,1,2.92,2.92,0,0,1-1.35.3,2.71,2.71,0,0,1-2.11-1,4,4,0,0,1-.89-2.73,4.7,4.7,0,0,1,.82-2.78A2.65,2.65,0,0,1,602,59.61,2.53,2.53,0,0,1,603.43,60Zm-2.74,5.49a1.75,1.75,0,0,0,1.59.79,1.68,1.68,0,0,0,1.4-.74,3.52,3.52,0,0,0,.54-2.11,3.1,3.1,0,0,0-.56-2,1.78,1.78,0,0,0-1.4-.67,1.81,1.81,0,0,0-1.49.72,3.22,3.22,0,0,0-.58,2.09A3.67,3.67,0,0,0,600.69,65.46Z"/><path class="a" d="M611.72,59.94a2.9,2.9,0,0,1,1.11,1,3.5,3.5,0,0,1,.49,1.29,9,9,0,0,1,.1,1.61H608.1a3.2,3.2,0,0,0,.52,1.8,1.74,1.74,0,0,0,1.51.67,1.94,1.94,0,0,0,1.53-.64,2.18,2.18,0,0,0,.45-.85h1.21a2.54,2.54,0,0,1-.32.89,3.28,3.28,0,0,1-.6.81,2.82,2.82,0,0,1-1.37.74,3.88,3.88,0,0,1-1,.11,3.07,3.07,0,0,1-2.31-1,3.89,3.89,0,0,1-.94-2.79,4.24,4.24,0,0,1,1-2.86,3.12,3.12,0,0,1,2.49-1.1A3.38,3.38,0,0,1,611.72,59.94Zm.44,2.88a3,3,0,0,0-.35-1.28,1.76,1.76,0,0,0-1.67-.89,1.84,1.84,0,0,0-1.41.61,2.32,2.32,0,0,0-.6,1.56Z"/><path class="a" d="M615,59.74h1.17V61a2.67,2.67,0,0,1,.7-.9,1.8,1.8,0,0,1,1.29-.53h.12l.28,0v1.3l-.2,0h-.2a1.75,1.75,0,0,0-1.43.59,2.06,2.06,0,0,0-.5,1.38v4.21H615Z"/><path class="a" d="M619.65,59.74h1.21v1a4.18,4.18,0,0,1,.8-.79,2.41,2.41,0,0,1,1.38-.41,1.95,1.95,0,0,1,2,1.15,2.66,2.66,0,0,1,1-.87,2.63,2.63,0,0,1,1.24-.28,2,2,0,0,1,2,1.06,3.54,3.54,0,0,1,.29,1.55v4.87h-1.28V62a1.17,1.17,0,0,0-.37-1,1.45,1.45,0,0,0-.89-.27,1.8,1.8,0,0,0-1.25.48,2.14,2.14,0,0,0-.52,1.62v4.26h-1.25V62.28a2.42,2.42,0,0,0-.18-1.08,1.08,1.08,0,0,0-1-.52,1.79,1.79,0,0,0-1.26.54,2.67,2.67,0,0,0-.57,2v3.88h-1.23Z"/><path class="a" d="M631.31,57h1.25v1.39h-1.25Zm0,2.75h1.25v7.29h-1.25Z"/><path class="a" d="M634.42,59.74h1.17v1a3.09,3.09,0,0,1,1.1-.92,2.87,2.87,0,0,1,1.29-.28,2.12,2.12,0,0,1,2.1,1.08,3.76,3.76,0,0,1,.31,1.71v4.69h-1.26V62.45a2.52,2.52,0,0,0-.19-1.08,1.21,1.21,0,0,0-1.19-.69,2.43,2.43,0,0,0-.72.09,1.86,1.86,0,0,0-.89.6,2,2,0,0,0-.4.75,5.23,5.23,0,0,0-.09,1.11v3.83h-1.23Z"/><path class="a" d="M642.45,57.7h1.24v2h1.17v1h-1.17v4.77A.53.53,0,0,0,644,66a1.15,1.15,0,0,0,.48.07h.19l.24,0v1a2.85,2.85,0,0,1-.44.09,3.79,3.79,0,0,1-.49,0,1.33,1.33,0,0,1-1.17-.44,2,2,0,0,1-.31-1.15V60.75h-1v-1h1Z"/><path class="a" d="M594.9,73.82h1.6l5,8.11V73.82h1.29v10h-1.52l-5.08-8.1v8.1h-1.3Z"/><path class="a" d="M610.15,77.27a3.72,3.72,0,0,1,1,2.77,4.8,4.8,0,0,1-.86,2.93,3.07,3.07,0,0,1-2.65,1.15,3,3,0,0,1-2.38-1,4,4,0,0,1-.89-2.74,4.39,4.39,0,0,1,.93-2.94,3.12,3.12,0,0,1,2.5-1.09A3.28,3.28,0,0,1,610.15,77.27Zm-.77,4.87a4.68,4.68,0,0,0,.45-2.06,3.82,3.82,0,0,0-.32-1.67,1.82,1.82,0,0,0-1.77-1,1.73,1.73,0,0,0-1.62.86,4,4,0,0,0-.51,2.08,3.46,3.46,0,0,0,.51,1.94,1.76,1.76,0,0,0,1.6.78A1.68,1.68,0,0,0,609.38,82.14Z"/><path class="a" d="M616.65,76.77a3,3,0,0,1,.74.71V73.79h1.19V83.86h-1.11v-1a2.71,2.71,0,0,1-1,1,2.88,2.88,0,0,1-1.34.3,2.71,2.71,0,0,1-2.11-1,4,4,0,0,1-.89-2.74,4.76,4.76,0,0,1,.81-2.77,2.66,2.66,0,0,1,2.33-1.17A2.56,2.56,0,0,1,616.65,76.77Zm-2.75,5.49a1.78,1.78,0,0,0,1.6.79,1.67,1.67,0,0,0,1.39-.74,3.45,3.45,0,0,0,.55-2.11,3.16,3.16,0,0,0-.56-2,1.78,1.78,0,0,0-1.4-.67,1.87,1.87,0,0,0-1.5.71,3.33,3.33,0,0,0-.57,2.1A3.67,3.67,0,0,0,613.9,82.26Z"/><path class="a" d="M624.94,76.74a2.79,2.79,0,0,1,1.1,1,3.18,3.18,0,0,1,.49,1.29,7.92,7.92,0,0,1,.11,1.61h-5.32a3.12,3.12,0,0,0,.52,1.8,1.73,1.73,0,0,0,1.51.67,1.94,1.94,0,0,0,1.53-.64,2.15,2.15,0,0,0,.45-.86h1.21a2.51,2.51,0,0,1-.32.9,3.28,3.28,0,0,1-.6.81,2.81,2.81,0,0,1-1.38.74,4.25,4.25,0,0,1-1,.11,3.07,3.07,0,0,1-2.3-1,3.89,3.89,0,0,1-.94-2.79,4.19,4.19,0,0,1,1-2.86,3.1,3.1,0,0,1,2.49-1.1A3.38,3.38,0,0,1,624.94,76.74Zm.44,2.88a3.2,3.2,0,0,0-.35-1.28,1.76,1.76,0,0,0-1.67-.89,1.84,1.84,0,0,0-1.41.61,2.38,2.38,0,0,0-.61,1.56Z"/><rect class="j" x="37" y="117" width="144" height="52.5"/><rect class="k" x="46.5" y="135.5" width="36" height="24"/><path class="l" d="M64.42,142.92v1.2H61V153H59.66v-8.85H56.28v-1.2Z"/><path class="l" d="M66.52,153H64.88l3.56-5.16-3.33-4.89H66.8l2.54,3.85,2.51-3.85h1.61l-3.33,4.89,3.5,5.16H71.94l-2.67-4.13Z"/><rect class="k" x="90.5" y="135.5" width="36" height="24"/><path class="l" d="M108.42,142.92v1.2H105V153h-1.38v-8.85h-3.38v-1.2Z"/><path class="l" d="M110.52,153h-1.64l3.56-5.16-3.33-4.89h1.69l2.54,3.85,2.51-3.85h1.61l-3.33,4.89,3.5,5.16h-1.69l-2.67-4.13Z"/><rect class="k" x="136.5" y="135.5" width="36" height="24"/><path class="l" d="M154.42,142.92v1.2H151V153h-1.38v-8.85h-3.38v-1.2Z"/><path class="l" d="M156.52,153h-1.64l3.56-5.16-3.33-4.89h1.69l2.54,3.85,2.51-3.85h1.61l-3.33,4.89,3.5,5.16h-1.69l-2.67-4.13Z"/><path d="M67.58,122.38a3.07,3.07,0,0,1,1,2H67.43a2.43,2.43,0,0,0-.76-1.32,2.4,2.4,0,0,0-1.59-.48,2.57,2.57,0,0,0-2,.89,4.15,4.15,0,0,0-.76,2.74,4.07,4.07,0,0,0,.69,2.46,2.39,2.39,0,0,0,2.07.94,2.18,2.18,0,0,0,1.93-1,3.85,3.85,0,0,0,.52-1.37h1.14a3.91,3.91,0,0,1-1,2.28,3.54,3.54,0,0,1-2.73,1.1,3.6,3.6,0,0,1-2.49-.9,5.63,5.63,0,0,1-.33-6.84,3.64,3.64,0,0,1,3-1.33A3.45,3.45,0,0,1,67.58,122.38Z"/><path d="M70,124.08h1v1.08a2.67,2.67,0,0,1,.61-.77,1.57,1.57,0,0,1,1.11-.45h.09l.25,0v1.11l-.18,0h-.17a1.5,1.5,0,0,0-1.23.52,1.8,1.8,0,0,0-.42,1.18v3.61H70Z"/><path d="M77.89,124.25a2.35,2.35,0,0,1,.94.81,2.85,2.85,0,0,1,.42,1.11,6.56,6.56,0,0,1,.1,1.38H74.78a2.7,2.7,0,0,0,.45,1.54,1.49,1.49,0,0,0,1.3.58,1.64,1.64,0,0,0,1.3-.55,1.67,1.67,0,0,0,.39-.73h1a2.38,2.38,0,0,1-.27.77,3,3,0,0,1-.52.69,2.38,2.38,0,0,1-1.18.63,3.2,3.2,0,0,1-.85.1,2.65,2.65,0,0,1-2-.85,3.34,3.34,0,0,1-.81-2.39,3.6,3.6,0,0,1,.82-2.46,2.66,2.66,0,0,1,2.13-.94A2.85,2.85,0,0,1,77.89,124.25Zm.37,2.47a2.79,2.79,0,0,0-.29-1.1,1.52,1.52,0,0,0-1.44-.76,1.59,1.59,0,0,0-1.21.52,2,2,0,0,0-.51,1.34Z"/><path d="M84.05,126.56a.55.55,0,0,0,.48-.31,1.06,1.06,0,0,0-.31-1.19,2.09,2.09,0,0,0-1.1-.24,1.39,1.39,0,0,0-1.17.45,1.56,1.56,0,0,0-.25.73h-1a1.84,1.84,0,0,1,.75-1.62,3.1,3.1,0,0,1,1.68-.45,3.41,3.41,0,0,1,1.79.42,1.43,1.43,0,0,1,.69,1.31v3.62a.4.4,0,0,0,.07.26c0,.07.14.1.28.1h.16l.19,0v.77a2.42,2.42,0,0,1-.38.09l-.35,0a.86.86,0,0,1-.79-.39,1.32,1.32,0,0,1-.18-.58,2.84,2.84,0,0,1-.93.74,3,3,0,0,1-1.33.31,2,2,0,0,1-1.43-.53,1.77,1.77,0,0,1-.55-1.33,1.69,1.69,0,0,1,.55-1.35,2.52,2.52,0,0,1,1.42-.59Zm-2.22,2.85a1.25,1.25,0,0,0,.79.26,2.38,2.38,0,0,0,1.07-.26,1.44,1.44,0,0,0,.88-1.4v-.84a1.72,1.72,0,0,1-.49.2,3.35,3.35,0,0,1-.6.12l-.64.08a2.41,2.41,0,0,0-.86.24.93.93,0,0,0-.49.88A.86.86,0,0,0,81.83,129.41Z"/><path d="M87.57,122.33h1.06v1.75h1v.86h-1V129a.45.45,0,0,0,.23.44,1,1,0,0,0,.41.06h.16l.21,0v.84a2.32,2.32,0,0,1-.38.07,2.81,2.81,0,0,1-.43,0,1.15,1.15,0,0,1-1-.38,1.72,1.72,0,0,1-.26-1v-4.16h-.85v-.86h.85Z"/><path d="M94.57,124.25a2.46,2.46,0,0,1,1,.81,2.85,2.85,0,0,1,.42,1.11,7.53,7.53,0,0,1,.09,1.38H91.46a2.7,2.7,0,0,0,.45,1.54,1.49,1.49,0,0,0,1.3.58,1.67,1.67,0,0,0,1.31-.55,1.76,1.76,0,0,0,.38-.73h1a2.38,2.38,0,0,1-.27.77,3,3,0,0,1-.52.69,2.38,2.38,0,0,1-1.18.63,3.2,3.2,0,0,1-.85.1,2.65,2.65,0,0,1-2-.85,3.34,3.34,0,0,1-.81-2.39,3.6,3.6,0,0,1,.82-2.46,2.66,2.66,0,0,1,2.13-.94A2.85,2.85,0,0,1,94.57,124.25Zm.37,2.47a2.79,2.79,0,0,0-.29-1.1,1.52,1.52,0,0,0-1.44-.76,1.59,1.59,0,0,0-1.21.52,2,2,0,0,0-.51,1.34Z"/><path d="M106.89,121.75v1H104v7.59h-1.18v-7.59h-2.9v-1Z"/><path d="M107.22,124.08h1.37l1.44,2.21,1.46-2.21,1.28,0-2.12,3,2.21,3.22h-1.34L110,128l-1.52,2.36h-1.33l2.21-3.22Z"/><path d="M117.26,121.75H121a2.48,2.48,0,0,1,2.17.9,2.11,2.11,0,0,1,.38,1.23,2,2,0,0,1-.47,1.34,2.28,2.28,0,0,1-.69.5,3,3,0,0,1,1,.57,2,2,0,0,1,.58,1.55,2.39,2.39,0,0,1-.52,1.51,3,3,0,0,1-2.5,1h-3.66Zm3.29,3.64a2.61,2.61,0,0,0,1.16-.21,1.18,1.18,0,0,0,.65-1.16,1.13,1.13,0,0,0-.69-1.14,3.38,3.38,0,0,0-1.16-.16h-2.1v2.67Zm.39,4a1.81,1.81,0,0,0,1.55-.62,1.58,1.58,0,0,0,.29-1,1.27,1.27,0,0,0-.85-1.28,3.27,3.27,0,0,0-1.19-.18h-2.33v3Z"/><path d="M128.52,126.56a.58.58,0,0,0,.49-.31,1,1,0,0,0,.07-.4.87.87,0,0,0-.39-.79,2,2,0,0,0-1.09-.24,1.39,1.39,0,0,0-1.17.45,1.37,1.37,0,0,0-.25.73h-1a1.84,1.84,0,0,1,.75-1.62,3.1,3.1,0,0,1,1.68-.45,3.43,3.43,0,0,1,1.8.42,1.44,1.44,0,0,1,.68,1.31v3.62a.4.4,0,0,0,.07.26c0,.07.14.1.28.1h.16l.19,0v.77a2.42,2.42,0,0,1-.38.09l-.35,0a.86.86,0,0,1-.79-.39,1.32,1.32,0,0,1-.18-.58,2.74,2.74,0,0,1-.93.74,2.93,2.93,0,0,1-1.33.31,2,2,0,0,1-1.42-.53,1.78,1.78,0,0,1-.56-1.33,1.69,1.69,0,0,1,.55-1.35,2.55,2.55,0,0,1,1.43-.59Zm-2.22,2.85a1.25,1.25,0,0,0,.79.26,2.45,2.45,0,0,0,1.08-.26,1.45,1.45,0,0,0,.88-1.4v-.84a1.8,1.8,0,0,1-.5.2,3.19,3.19,0,0,1-.6.12l-.63.08a2.48,2.48,0,0,0-.87.24,1,1,0,0,0-.49.88A.89.89,0,0,0,126.3,129.41Z"/><path d="M132,122.33h1.07v1.75h1v.86h-1V129a.44.44,0,0,0,.22.44,1,1,0,0,0,.41.06h.16l.21,0v.84a2.32,2.32,0,0,1-.38.07,2.77,2.77,0,0,1-.42,0,1.16,1.16,0,0,1-1-.38,1.72,1.72,0,0,1-.26-1v-4.16h-.85v-.86H132Z"/><path d="M139.31,124.41a2.51,2.51,0,0,1,.8,1.78h-1a1.84,1.84,0,0,0-.42-1,1.36,1.36,0,0,0-1.08-.39,1.48,1.48,0,0,0-1.44,1,3.8,3.8,0,0,0-.28,1.57,2.93,2.93,0,0,0,.4,1.59,1.37,1.37,0,0,0,1.25.64,1.35,1.35,0,0,0,1-.4,2.11,2.11,0,0,0,.53-1.1h1a2.74,2.74,0,0,1-.88,1.83,2.78,2.78,0,0,1-1.8.58,2.4,2.4,0,0,1-2-.9,3.44,3.44,0,0,1-.73-2.25,3.75,3.75,0,0,1,.8-2.57,2.6,2.6,0,0,1,2-.92A2.76,2.76,0,0,1,139.31,124.41Z"/><path d="M141.16,121.72h1.06v3.21a3,3,0,0,1,.67-.67,2.31,2.31,0,0,1,1.27-.33,1.91,1.91,0,0,1,1.86.95,3.36,3.36,0,0,1,.26,1.45v4h-1.09v-4a2.16,2.16,0,0,0-.17-1,1.11,1.11,0,0,0-1.08-.52,1.8,1.8,0,0,0-1.19.45,2.2,2.2,0,0,0-.53,1.71v3.33h-1.06Z"/><rect class="j" x="289.01" y="117.97" width="144" height="52.5"/><rect class="m" x="298.51" y="136.47" width="36" height="24"/><path class="a" d="M316.43,143.9v1.19h-3.38v8.85h-1.37v-8.85h-3.39V143.9Z"/><path class="a" d="M318.53,153.94H316.9l3.55-5.15-3.33-4.89h1.69l2.54,3.84,2.51-3.84h1.62l-3.33,4.89,3.49,5.15H324l-2.68-4.13Z"/><rect class="m" x="342.51" y="136.47" width="36" height="24"/><path class="a" d="M360.43,143.9v1.19h-3.38v8.85h-1.37v-8.85h-3.39V143.9Z"/><path class="a" d="M362.53,153.94H360.9l3.55-5.15-3.33-4.89h1.69l2.54,3.84,2.51-3.84h1.62l-3.33,4.89,3.49,5.15H368l-2.68-4.13Z"/><rect class="m" x="388.51" y="136.47" width="36" height="24"/><path class="a" d="M406.43,143.9v1.19h-3.38v8.85h-1.37v-8.85h-3.39V143.9Z"/><path class="a" d="M408.53,153.94H406.9l3.55-5.15-3.33-4.89h1.69l2.54,3.84,2.51-3.84h1.62l-3.33,4.89,3.49,5.15H414l-2.68-4.13Z"/><path d="M320.26,128.55a2.5,2.5,0,0,0,.33,1.19,2.19,2.19,0,0,0,2,.86,3.47,3.47,0,0,0,1.15-.19,1.33,1.33,0,0,0,1-1.3,1.11,1.11,0,0,0-.43-1,3.88,3.88,0,0,0-1.35-.51l-1.13-.27a4.85,4.85,0,0,1-1.56-.57,1.81,1.81,0,0,1-.8-1.61,2.5,2.5,0,0,1,.78-1.9,3.07,3.07,0,0,1,2.22-.75,3.72,3.72,0,0,1,2.23.66,2.36,2.36,0,0,1,.92,2.09h-1.09a2.27,2.27,0,0,0-.36-1.06,2,2,0,0,0-1.74-.68A2,2,0,0,0,321,124a1.35,1.35,0,0,0-.43,1,1,1,0,0,0,.51.93,7.74,7.74,0,0,0,1.52.47l1.17.27a3.68,3.68,0,0,1,1.3.55,2.06,2.06,0,0,1,.8,1.75,2.19,2.19,0,0,1-1,2,4.35,4.35,0,0,1-2.36.62,3.46,3.46,0,0,1-2.45-.82,2.77,2.77,0,0,1-.86-2.21Z"/><path d="M327.36,122.72h1.07v1.2h-1.07Zm0,2.36h1.07v6.25h-1.07Z"/><path d="M333.52,125.3a2.83,2.83,0,0,1,.6.6v-.79h1v5.71a4.31,4.31,0,0,1-.35,1.89,2.52,2.52,0,0,1-2.47,1.27,3,3,0,0,1-1.7-.45,1.76,1.76,0,0,1-.77-1.42h1.07a1.2,1.2,0,0,0,.3.65,1.57,1.57,0,0,0,1.12.35,1.55,1.55,0,0,0,1.58-.86,4.79,4.79,0,0,0,.2-1.79,2.05,2.05,0,0,1-.76.71,2.43,2.43,0,0,1-1.17.23,2.51,2.51,0,0,1-1.78-.72,3.21,3.21,0,0,1-.76-2.39,3.64,3.64,0,0,1,.77-2.46,2.37,2.37,0,0,1,1.85-.89A2.32,2.32,0,0,1,333.52,125.3Zm.13,1.14a1.53,1.53,0,0,0-1.22-.57,1.51,1.51,0,0,0-1.52,1,4.18,4.18,0,0,0-.21,1.46,2.57,2.57,0,0,0,.43,1.61,1.36,1.36,0,0,0,1.15.55,1.62,1.62,0,0,0,1.59-1,3.37,3.37,0,0,0,.25-1.36A2.66,2.66,0,0,0,333.65,126.44Z"/><path d="M336.7,125.05h1v.89a3,3,0,0,1,.95-.79,2.5,2.5,0,0,1,1.1-.24,1.82,1.82,0,0,1,1.81.93,3.35,3.35,0,0,1,.26,1.46v4h-1.07v-4a2.16,2.16,0,0,0-.17-.92,1,1,0,0,0-1-.59,2.12,2.12,0,0,0-.62.08,1.58,1.58,0,0,0-.76.51,1.48,1.48,0,0,0-.34.64,4,4,0,0,0-.08.95v3.29H336.7Z"/><path d="M352.9,122.72v1H350v7.58h-1.18v-7.58h-2.9v-1Z"/><path d="M353.23,125.05h1.37l1.44,2.21,1.46-2.21,1.28,0-2.11,3,2.2,3.22h-1.34L356,129l-1.51,2.36h-1.34l2.21-3.22Z"/><path d="M363.27,122.72H367a2.48,2.48,0,0,1,2.16.9,2.11,2.11,0,0,1,.38,1.23,2,2,0,0,1-.46,1.34,2.34,2.34,0,0,1-.7.5,2.8,2.8,0,0,1,1,.57,2.05,2.05,0,0,1,.58,1.55,2.39,2.39,0,0,1-.52,1.51,3,3,0,0,1-2.49,1h-3.67Zm3.29,3.64a2.61,2.61,0,0,0,1.16-.21,1.18,1.18,0,0,0,.65-1.16,1.11,1.11,0,0,0-.69-1.13,3.12,3.12,0,0,0-1.16-.17h-2.1v2.67Zm.39,4a1.81,1.81,0,0,0,1.55-.62,1.58,1.58,0,0,0,.29-1,1.27,1.27,0,0,0-.85-1.28,3.24,3.24,0,0,0-1.19-.18h-2.33v3Z"/><path d="M374.53,127.53a.59.59,0,0,0,.49-.3,1.08,1.08,0,0,0,.07-.41.85.85,0,0,0-.39-.78,2,2,0,0,0-1.09-.25,1.39,1.39,0,0,0-1.17.45,1.45,1.45,0,0,0-.25.73h-1a1.81,1.81,0,0,1,.75-1.61,3.07,3.07,0,0,1,1.68-.46,3.43,3.43,0,0,1,1.8.42,1.44,1.44,0,0,1,.68,1.31v3.62a.4.4,0,0,0,.07.26c0,.07.14.1.28.1h.16l.19,0v.78l-.38.09h-.35a.89.89,0,0,1-.79-.38,1.73,1.73,0,0,1-.18-.58,2.63,2.63,0,0,1-.93.73,2.8,2.8,0,0,1-1.33.31,2,2,0,0,1-1.42-.53,1.77,1.77,0,0,1-.56-1.33,1.72,1.72,0,0,1,.55-1.35,2.55,2.55,0,0,1,1.43-.59Zm-2.22,2.85a1.21,1.21,0,0,0,.79.26,2.44,2.44,0,0,0,1.08-.25,1.47,1.47,0,0,0,.88-1.4v-.85a1.8,1.8,0,0,1-.5.2,3.19,3.19,0,0,1-.6.12l-.63.08a2.48,2.48,0,0,0-.87.24,1,1,0,0,0-.48.88A.88.88,0,0,0,372.31,130.38Z"/><path d="M378.05,123.3h1.07v1.75h1v.86h-1V130a.44.44,0,0,0,.22.44,1,1,0,0,0,.41.06h.17l.2,0v.84a2.32,2.32,0,0,1-.38.07,2.77,2.77,0,0,1-.42,0,1.14,1.14,0,0,1-1-.38,1.65,1.65,0,0,1-.27-1v-4.16h-.85v-.86h.85Z"/><path d="M385.32,125.39a2.46,2.46,0,0,1,.8,1.77h-1a1.88,1.88,0,0,0-.42-1,1.36,1.36,0,0,0-1.08-.39,1.48,1.48,0,0,0-1.44,1,4,4,0,0,0-.28,1.57,2.93,2.93,0,0,0,.4,1.59,1.55,1.55,0,0,0,2.29.24,2.07,2.07,0,0,0,.53-1.09h1a2.49,2.49,0,0,1-2.68,2.4,2.4,2.4,0,0,1-2-.9,3.44,3.44,0,0,1-.73-2.25,3.75,3.75,0,0,1,.8-2.57,2.6,2.6,0,0,1,2-.92A2.7,2.7,0,0,1,385.32,125.39Z"/><path d="M387.17,122.69h1.06v3.21a3.22,3.22,0,0,1,.67-.67,2.31,2.31,0,0,1,1.27-.33,1.9,1.9,0,0,1,1.86,1,3.31,3.31,0,0,1,.26,1.44v4h-1.08v-4a2.14,2.14,0,0,0-.18-1,1.13,1.13,0,0,0-1.08-.52,1.8,1.8,0,0,0-1.19.45,2.21,2.21,0,0,0-.53,1.71v3.33h-1.06Z"/><polygon class="a" points="255.49 151.51 181.01 151.51 181.01 137.12 255.49 137.12 255.49 128.92 288.33 144 255.49 159.08 255.49 151.51"/><path d="M255.83,129.44,287.52,144l-31.69,14.56v-7.38H181.35V137.46h74.48v-8m-.67-1.05v8.39H180.67v15.07h74.49v7.76l34-15.61-34-15.61Z"/><polygon class="a" points="507.49 151.51 433.01 151.51 433.01 137.12 507.49 137.12 507.49 128.92 540.33 144 507.49 159.08 507.49 151.51"/><path d="M507.83,129.44,539.52,144l-31.69,14.56v-7.38H433.35V137.46h74.48v-8m-.67-1.05v8.39H432.67v15.07h74.49v7.76l34-15.61-34-15.61Z"/><rect class="j" x="540.9" y="117.97" width="144" height="52.5"/><path d="M585,130.88h3.72a2.46,2.46,0,0,1,2.16.9,2,2,0,0,1,.38,1.23,1.93,1.93,0,0,1-.46,1.34,2.28,2.28,0,0,1-.69.5,3,3,0,0,1,1,.57,2.09,2.09,0,0,1,.58,1.55,2.4,2.4,0,0,1-.53,1.51,3,3,0,0,1-2.49,1H585Zm3.28,3.64a2.58,2.58,0,0,0,1.16-.21,1.17,1.17,0,0,0,.66-1.16,1.1,1.1,0,0,0-.7-1.13,3.08,3.08,0,0,0-1.16-.17h-2.1v2.67Zm.4,4a1.78,1.78,0,0,0,1.54-.62,1.58,1.58,0,0,0,.29-1,1.27,1.27,0,0,0-.84-1.28,3.27,3.27,0,0,0-1.19-.18h-2.34v3Z"/><path d="M592.93,133.21h1v1.09a2.26,2.26,0,0,1,.61-.77,1.52,1.52,0,0,1,1.1-.46h.1l.24,0v1.11l-.17,0h-.17a1.53,1.53,0,0,0-1.23.51,1.8,1.8,0,0,0-.43,1.18v3.61h-1.05Z"/><path d="M601.44,133.84a3.15,3.15,0,0,1,.84,2.38,4.08,4.08,0,0,1-.74,2.5,2.63,2.63,0,0,1-2.27,1,2.55,2.55,0,0,1-2-.87,3.46,3.46,0,0,1-.76-2.35,3.7,3.7,0,0,1,.8-2.52,2.64,2.64,0,0,1,2.14-.94A2.79,2.79,0,0,1,601.44,133.84Zm-.65,4.17a4,4,0,0,0,.38-1.76,3.23,3.23,0,0,0-.27-1.43,1.57,1.57,0,0,0-1.52-.87,1.49,1.49,0,0,0-1.39.74,3.43,3.43,0,0,0-.44,1.78,3,3,0,0,0,.44,1.67,1.53,1.53,0,0,0,1.38.66A1.43,1.43,0,0,0,600.79,138Z"/><path d="M606.93,135.69a.56.56,0,0,0,.49-.3.92.92,0,0,0,.07-.41.86.86,0,0,0-.38-.78A2,2,0,0,0,606,134a1.39,1.39,0,0,0-1.17.45,1.45,1.45,0,0,0-.25.73h-1a1.81,1.81,0,0,1,.75-1.61,3,3,0,0,1,1.67-.46,3.43,3.43,0,0,1,1.8.42,1.43,1.43,0,0,1,.69,1.31v3.62a.48.48,0,0,0,.06.26c0,.07.14.1.29.1H609l.18,0v.78l-.37.09h-.35a.87.87,0,0,1-.79-.38,1.52,1.52,0,0,1-.19-.58,2.68,2.68,0,0,1-.92.73,2.83,2.83,0,0,1-1.33.31,2,2,0,0,1-1.43-.53,1.76,1.76,0,0,1-.55-1.33,1.71,1.71,0,0,1,.54-1.35,2.66,2.66,0,0,1,1.43-.59Zm-2.22,2.85a1.23,1.23,0,0,0,.79.26,2.41,2.41,0,0,0,1.08-.25,1.46,1.46,0,0,0,.88-1.4v-.85a1.68,1.68,0,0,1-.5.2,3.25,3.25,0,0,1-.59.12l-.64.08a2.41,2.41,0,0,0-.86.24.94.94,0,0,0-.49.88A.88.88,0,0,0,604.71,138.54Z"/><path d="M613.69,133.41a2.69,2.69,0,0,1,.64.61v-3.17h1v8.64h-1v-.87a2.22,2.22,0,0,1-.87.83,2.5,2.5,0,0,1-1.15.26,2.33,2.33,0,0,1-1.81-.88,3.46,3.46,0,0,1-.76-2.35,4,4,0,0,1,.7-2.37,2.28,2.28,0,0,1,2-1A2.14,2.14,0,0,1,613.69,133.41Zm-2.35,4.7a1.49,1.49,0,0,0,1.36.68,1.43,1.43,0,0,0,1.2-.63,3,3,0,0,0,.47-1.81,2.7,2.7,0,0,0-.48-1.76,1.6,1.6,0,0,0-2.48,0,2.79,2.79,0,0,0-.5,1.79A3.05,3.05,0,0,0,611.34,138.11Z"/><path d="M621.06,133.55a2.42,2.42,0,0,1,.8,1.77h-1a1.89,1.89,0,0,0-.43-1,1.33,1.33,0,0,0-1.07-.39,1.48,1.48,0,0,0-1.44,1,3.84,3.84,0,0,0-.28,1.57,3,3,0,0,0,.39,1.59,1.38,1.38,0,0,0,1.26.64,1.36,1.36,0,0,0,1-.4,2.23,2.23,0,0,0,.53-1.09h1a2.49,2.49,0,0,1-2.67,2.4,2.42,2.42,0,0,1-2-.9,3.44,3.44,0,0,1-.73-2.25,3.8,3.8,0,0,1,.8-2.57,2.62,2.62,0,0,1,2.05-.92A2.69,2.69,0,0,1,621.06,133.55Z"/><path d="M626.28,135.69a.58.58,0,0,0,.49-.3,1.08,1.08,0,0,0,.07-.41.86.86,0,0,0-.38-.78,2,2,0,0,0-1.1-.25,1.39,1.39,0,0,0-1.17.45,1.45,1.45,0,0,0-.25.73h-1a1.79,1.79,0,0,1,.76-1.61,3,3,0,0,1,1.67-.46,3.43,3.43,0,0,1,1.8.42,1.42,1.42,0,0,1,.68,1.31v3.62a.47.47,0,0,0,.07.26.32.32,0,0,0,.28.1h.16l.19,0v.78l-.37.09h-.36a.89.89,0,0,1-.79-.38,1.73,1.73,0,0,1-.18-.58,2.68,2.68,0,0,1-.92.73,2.86,2.86,0,0,1-1.33.31,2,2,0,0,1-1.43-.53,1.76,1.76,0,0,1-.55-1.33,1.71,1.71,0,0,1,.54-1.35,2.63,2.63,0,0,1,1.43-.59Zm-2.22,2.85a1.21,1.21,0,0,0,.79.26,2.44,2.44,0,0,0,1.08-.25,1.46,1.46,0,0,0,.88-1.4v-.85a1.8,1.8,0,0,1-.5.2,3.19,3.19,0,0,1-.6.12l-.63.08a2.41,2.41,0,0,0-.86.24.94.94,0,0,0-.49.88A.88.88,0,0,0,624.06,138.54Z"/><path d="M630.22,137.52a1.49,1.49,0,0,0,.27.81,1.7,1.7,0,0,0,1.41.51,2.1,2.1,0,0,0,1.05-.26.85.85,0,0,0,.46-.79.67.67,0,0,0-.37-.61,3.89,3.89,0,0,0-.91-.3l-.86-.21a4,4,0,0,1-1.2-.45,1.32,1.32,0,0,1-.69-1.18,1.81,1.81,0,0,1,.65-1.44,2.6,2.6,0,0,1,1.75-.55,2.44,2.44,0,0,1,2.07.83,1.75,1.75,0,0,1,.39,1.14h-1a1.13,1.13,0,0,0-.26-.65,1.66,1.66,0,0,0-1.28-.41,1.6,1.6,0,0,0-.93.22.73.73,0,0,0,.1,1.26,2.59,2.59,0,0,0,.7.26l.71.17a5.5,5.5,0,0,1,1.55.53,1.41,1.41,0,0,1,.62,1.27,2,2,0,0,1-.64,1.45,2.77,2.77,0,0,1-2,.61,2.61,2.61,0,0,1-2-.64,2.31,2.31,0,0,1-.63-1.57Z"/><path d="M635.8,131.46h1.07v1.75h1v.86h-1v4.1a.44.44,0,0,0,.22.44,1,1,0,0,0,.41.06h.17l.2,0v.84a2.32,2.32,0,0,1-.38.07,2.77,2.77,0,0,1-.42,0,1.14,1.14,0,0,1-1-.38,1.65,1.65,0,0,1-.27-1v-4.16H635v-.86h.85Z"/><path d="M583.45,145.86h1.06v1.75h1v.86h-1v4.1a.44.44,0,0,0,.23.44,1,1,0,0,0,.41.06h.16l.2,0v.84a2.2,2.2,0,0,1-.37.07,2.9,2.9,0,0,1-.43,0,1.15,1.15,0,0,1-1-.38,1.64,1.64,0,0,1-.26-1v-4.16h-.85v-.86h.85Z"/><path d="M591.12,148.24a3.19,3.19,0,0,1,.83,2.38,4.08,4.08,0,0,1-.74,2.5,2.62,2.62,0,0,1-2.27,1,2.55,2.55,0,0,1-2-.87,3.46,3.46,0,0,1-.76-2.35,3.75,3.75,0,0,1,.8-2.52,2.64,2.64,0,0,1,2.14-.94A2.83,2.83,0,0,1,591.12,148.24Zm-.66,4.17a4,4,0,0,0,.39-1.76,3.22,3.22,0,0,0-.28-1.43,1.56,1.56,0,0,0-1.52-.87,1.49,1.49,0,0,0-1.39.74,3.43,3.43,0,0,0-.43,1.78,3,3,0,0,0,.43,1.67,1.53,1.53,0,0,0,1.38.66A1.42,1.42,0,0,0,590.46,152.41Z"/><path d="M596.72,145.28h1.37l4.29,7v-7h1.12v8.61h-1.31l-4.36-6.95v6.95h-1.11Z"/><path d="M609.12,147.79a2.31,2.31,0,0,1,1,.81,2.75,2.75,0,0,1,.42,1.1,7.59,7.59,0,0,1,.09,1.39H606a2.75,2.75,0,0,0,.44,1.53,1.5,1.5,0,0,0,1.3.58,1.68,1.68,0,0,0,1.31-.54,2,2,0,0,0,.39-.74h1a1.93,1.93,0,0,1-.27.77,2.71,2.71,0,0,1-.52.69,2.35,2.35,0,0,1-1.18.64,3.63,3.63,0,0,1-.85.09,2.6,2.6,0,0,1-2-.85,3.34,3.34,0,0,1-.81-2.39,3.6,3.6,0,0,1,.81-2.45,2.7,2.7,0,0,1,2.13-.95A2.83,2.83,0,0,1,609.12,147.79Zm.38,2.46a2.66,2.66,0,0,0-.3-1.1,1.52,1.52,0,0,0-1.43-.76,1.58,1.58,0,0,0-1.21.53,2,2,0,0,0-.52,1.33Z"/><path d="M612.13,145.86h1.06v1.75h1v.86h-1v4.1a.44.44,0,0,0,.23.44,1,1,0,0,0,.41.06H614l.21,0v.84a2.32,2.32,0,0,1-.38.07,2.81,2.81,0,0,1-.43,0,1.15,1.15,0,0,1-1-.38,1.72,1.72,0,0,1-.26-1v-4.16h-.85v-.86h.85Z"/><path d="M615.74,147.61l1.21,4.95,1.22-4.95h1.19l1.23,4.92,1.28-4.92h1l-1.82,6.28H620L618.73,149l-1.24,4.86H616.4l-1.81-6.28Z"/><path d="M628.46,148.24a3.15,3.15,0,0,1,.84,2.38,4.08,4.08,0,0,1-.74,2.5,2.63,2.63,0,0,1-2.27,1,2.55,2.55,0,0,1-2-.87,3.46,3.46,0,0,1-.76-2.35,3.7,3.7,0,0,1,.8-2.52,2.64,2.64,0,0,1,2.14-.94A2.79,2.79,0,0,1,628.46,148.24Zm-.65,4.17a4,4,0,0,0,.38-1.76,3.23,3.23,0,0,0-.27-1.43,1.57,1.57,0,0,0-1.52-.87,1.49,1.49,0,0,0-1.39.74,3.43,3.43,0,0,0-.44,1.78,3,3,0,0,0,.44,1.67,1.53,1.53,0,0,0,1.38.66A1.43,1.43,0,0,0,627.81,152.41Z"/><path d="M630.62,147.61h1v1.09a2.39,2.39,0,0,1,.61-.77,1.54,1.54,0,0,1,1.1-.46h.1l.24,0v1.11l-.17,0h-.17a1.53,1.53,0,0,0-1.23.51,1.8,1.8,0,0,0-.43,1.18v3.61h-1Z"/><path d="M634.56,145.28h1v5l2.7-2.67h1.35L637.22,150l2.54,3.94h-1.34l-2-3.2-.86.84v2.36h-1Z"/><path d="M45.85,131.49a5.58,5.58,0,1,1,5.58-5.58A5.57,5.57,0,0,1,45.85,131.49Zm-5.2-5.58a5.21,5.21,0,1,0,5.2-5.21A5.2,5.2,0,0,0,40.65,125.91Zm4.94-2.36h0l-1,.55-.16-.63,1.25-.64h.74V129h-.79Z"/><path d="M298,131.82a5.58,5.58,0,1,1,5.58-5.58A5.58,5.58,0,0,1,298,131.82Zm-5.21-5.58A5.21,5.21,0,1,0,298,121,5.2,5.2,0,0,0,292.81,126.24Zm3.11,3v-.5l.67-.6c2-1.74,2.54-2.33,2.56-3.13a1.2,1.2,0,0,0-1.37-1.24,2.41,2.41,0,0,0-1.45.57l-.25-.57a2.89,2.89,0,0,1,1.87-.67,1.8,1.8,0,0,1,2,1.76c0,1.18-.83,1.92-2.47,3.34l-.43.35v0h3.07v.67Z"/><path d="M549.71,132.17a5.58,5.58,0,1,1,5.58-5.58A5.57,5.57,0,0,1,549.71,132.17Zm-5.2-5.58a5.21,5.21,0,1,0,5.2-5.21A5.19,5.19,0,0,0,544.51,126.59Zm3.37,2a3.16,3.16,0,0,0,1.5.42c1.28,0,1.53-.81,1.53-1.15,0-1-1-1.23-1.8-1.23h-.5v-.62h.53c.72,0,1.52-.29,1.52-1,0-.42-.28-.91-1.19-.91a2.54,2.54,0,0,0-1.35.42l-.22-.59a3.22,3.22,0,0,1,1.72-.5c1.36,0,1.87.77,1.87,1.45a1.49,1.49,0,0,1-1.19,1.4v0a1.65,1.65,0,0,1,1.45,1.55c0,.87-.74,1.81-2.39,1.81a3.18,3.18,0,0,1-1.7-.46Z"/></svg>